HIERARCHY
ROOT Hips
{
	OFFSET 0.000000 0.000000 0.000000 
	CHANNELS 6 Xposition Yposition Zposition Yrotation Zrotation Xrotation 
	JOINT Lumbar
	{
		OFFSET 0.000000 0.000000 0.000000 
		CHANNELS 3 Zrotation Xrotation Yrotation
		JOINT Neck
		{
			OFFSET 0.000000 0.445665 0.000000 
			CHANNELS 3 Zrotation Xrotation Yrotation
			End Site
			{
				OFFSET 0.000000 0.227535 0.000000 
			}
		}
		JOINT RightShoulder
		{
			OFFSET 0.019635 0.377685 0.194865 
			CHANNELS 3 Zrotation Xrotation Yrotation
			JOINT RightElbow
			{
				OFFSET 0.000000 -0.243375 0.000000 
				CHANNELS 2 Zrotation Yrotation
				JOINT RightWrist
				{
					OFFSET 0.000000 -0.264825 0.000000 
					CHANNELS 2 Zrotation Xrotation
					End Site
					{
						OFFSET 0.006600 -0.176220 0.000990 
					}
				}
			}
		}
		JOINT LeftShoulder
		{
			OFFSET 0.019635 0.377685 -0.194865 
			CHANNELS 3 Zrotation Xrotation Yrotation
			JOINT LeftElbow
			{
				OFFSET 0.000000 -0.243375 0.000000 
				CHANNELS 2 Zrotation Yrotation
				JOINT LeftWrist
				{
					OFFSET 0.000000 -0.264825 0.000000 
					CHANNELS 2 Zrotation Xrotation
					End Site
					{
						OFFSET 0.006600 -0.176220 -0.000990 
					}
				}
			}
		}
	}
	JOINT RightHip
	{
		OFFSET 0.052140 -0.069960 0.075570 
		CHANNELS 3 Zrotation Xrotation Yrotation
		JOINT RightKnee
		{
			OFFSET 0.000000 -0.402270 0.000000 
			CHANNELS 1 Zrotation
			JOINT RightAnkle
			{
				OFFSET 0.000000 -0.404085 0.000000 
				CHANNELS 3 Zrotation Xrotation Yrotation
				End Site
				{
					OFFSET 0.204105 -0.089430 0.008415 
				}
			}
		}
	}
	JOINT LeftHip
	{
		OFFSET 0.052140 -0.069960 -0.075570 
		CHANNELS 3 Zrotation Xrotation Yrotation
		JOINT LeftKnee
		{
			OFFSET 0.000000 -0.402270 0.000000 
			CHANNELS 1 Zrotation
			JOINT LeftAnkle
			{
				OFFSET 0.000000 -0.404085 0.000000 
				CHANNELS 3 Zrotation Xrotation Yrotation
				End Site
				{
					OFFSET 0.204105 -0.089430 -0.008415 
				}
			}
		}
	}
}
MOTION
Frames: 31
Frame Time: 0.02
1.35871 0.93826 -0.62518 -777.28788 0 -6.11002 3.34989 0.53146 -5.32837 -32.81097 1.72573 1.78168 34.60046 -29.33375 5.18553 90.67905 115.45568 -75.1684 -21.59615 17.94372 18.58403 -17.20312 97.18249 -112.74135 -72.4648 7.39978 18.847 7.97464 -2.72925 -40.05693 6.77532 -3.40207 -4.03455 2.10246 3.24205 1.38079 -14.56141 11.28856 3.18117 2.17996
1.36419 0.93788 -0.61892 -777.72321 0 -6.14929 3.21717 0.55642 -5.2519 -32.91223 1.57459 1.62753 34.45167 -29.11551 5.58464 91.78763 111.67347 -74.76838 -18.83691 18.14479 18.67468 -17.40087 97.0817 -112.67709 -72.44365 7.33958 18.89631 8.28732 -2.54237 -36.03259 6.06255 -3.59457 -5.23284 1.26436 3.17657 1.59263 -13.99721 11.47343 3.36568 2.36642
1.36952 0.93729 -0.61219 -778.17249 0 -6.13247 3.10139 0.57649 -5.09276 -32.9771 1.32726 1.38691 34.1372 -28.79066 6.037 93.2317 106.6108 -74.19448 -15.28096 18.27029 18.89012 -17.60017 96.97841 -112.59412 -72.42714 7.27984 18.81285 8.55183 -2.13863 -31.87378 5.17626 -3.83994 -6.75369 0.36321 3.06755 1.78209 -13.35251 11.62513 3.55074 2.54572
1.37492 0.93678 -0.60562 -778.60658 0 -6.13767 2.9799 0.59911 -4.97435 -33.06115 1.11864 1.17831 33.89435 -28.50618 6.39906 94.55734 101.85613 -73.61175 -12.11698 18.42655 19.05822 -17.79414 96.88342 -112.51334 -72.40627 7.2211 18.78585 8.8293 -1.84715 -27.81187 4.39395 -4.0561 -8.10025 -0.50341 2.97629 1.98239 -12.75861 11.79759 3.7348 2.72377
1.38031 0.93635 -0.59927 -779.08007 0 -6.15665 2.84926 0.62005 -4.84076 -33.13551 0.92982 1.00105 33.66869 -28.25516 7.03265 95.74566 98.19694 -73.37946 -8.81605 18.5995 19.18414 -18.00942 96.75849 -112.45775 -72.39443 7.15719 18.76806 9.14406 -1.48322 -23.55885 3.48458 -4.29311 -9.57308 -1.39594 2.89242 2.18117 -12.10106 11.94546 3.92276 2.9216
1.38568 0.93569 -0.59234 -779.47248 0 -6.13449 2.74294 0.64392 -4.72064 -33.22148 0.67824 0.73778 33.36805 -27.91081 7.12248 97.2915 92.02868 -72.40122 -5.62297 18.71946 19.42834 -18.1803 96.69478 -112.34563 -72.36537 7.10386 18.70182 9.36987 -1.23122 -19.69543 2.80492 -4.49898 -10.85169 -2.2484 2.78453 2.37649 -11.56063 12.13725 4.10248 3.07585
1.39103 0.93441 -0.58411 -779.65728 0 -6.00626 2.68871 0.67196 -4.64837 -33.34096 0.26698 0.25835 32.89134 -27.31734 5.62036 99.81351 78.57996 -69.18891 -2.82721 18.70782 19.97078 -18.22368 96.8057 -112.08471 -72.28333 7.08364 18.53922 9.36293 -1.2528 -16.84065 2.82249 -4.61362 -11.56793 -2.98285 2.60599 2.57766 -11.33576 12.453 4.25895 3.11665
1.39637 0.9329 -0.57528 -779.75676 0 -5.84024 2.66074 0.70447 -4.59452 -33.4748 -0.2021 -0.30433 32.34671 -26.63692 3.58388 102.67062 62.77149 -65.27148 -0.18509 18.64597 20.62743 -18.22244 96.97721 -111.76764 -72.18433 7.07338 18.33199 9.26872 -1.40985 -14.4051 3.07536 -4.69366 -12.06752 -3.67331 2.40805 2.77423 -11.23705 12.81439 4.40707 3.11313
1.4017 0.93149 -0.56664 -779.8818 0 -5.695 2.62744 0.73773 -4.53855 -33.60617 -0.63831 -0.82967 31.8386 -26.00744 1.84261 105.32759 48.48351 -61.82036 2.46386 18.60926 21.2315 -18.2448 97.11797 -111.47423 -72.0963 7.056 18.14384 9.2129 -1.56661 -11.84839 3.21202 -4.7851 -12.63042 -4.37851 2.22812 2.9663 -11.09846 13.15943 4.55915 3.12606
1.40705 0.9301 -0.55837 -780.06125 0 -5.53058 2.5654 0.75733 -4.45292 -33.71771 -1.10621 -1.35775 31.29931 -25.32534 -0.11869 108.19774 32.27157 -57.75135 5.40453 18.5599 21.84493 -18.25493 97.273 -111.18643 -71.99583 7.04958 17.95853 9.15778 -1.46576 -8.99597 3.38676 -4.89767 -13.35118 -5.10786 2.00576 3.18529 -10.88234 13.48782 4.71059 3.15305
1.41237 0.92863 -0.54915 -780.10925 0 -5.40038 2.57106 0.80869 -4.43497 -33.87625 -1.51996 -1.89648 30.81297 -24.73445 -1.74827 110.69976 19.50763 -54.79912 7.69328 18.52622 22.46157 -18.2778 97.41178 -110.8758 -71.91568 7.02269 17.75526 9.08486 -1.92549 -6.85788 3.53365 -4.956 -13.68983 -5.7759 1.87038 3.34758 -10.85999 13.85832 4.86134 3.14196
1.41763 0.92689 -0.5376 -779.79545 0 -5.3521 2.74125 0.92747 -4.59584 -34.1448 -1.77434 -2.46336 30.47286 -24.4105 -2.3392 112.09503 16.98741 -55.14783 8.19237 18.54523 23.08183 -18.3642 97.49945 -110.49954 -71.90826 6.93691 17.54196 8.9517 -3.99752 -6.61959 3.60843 -4.88431 -13.00141 -6.28114 1.95733 3.35263 -11.33463 14.36572 5.01051 3.02081
1.42286 0.9251 -0.52509 -779.35623 0 -5.34344 2.98129 1.08116 -4.8251 -34.46275 -1.9707 -3.03397 30.1922 -24.18354 -2.57607 113.10776 17.99959 -56.6372 8.04132 18.58215 23.69593 -18.4613 97.56739 -110.10547 -71.91928 6.83026 17.3076 8.80947 -6.61286 -7.08165 3.63825 -4.75696 -11.93729 -6.72543 2.1367 3.30092 -12.00365 14.90723 5.15829 2.86472
1.4281 0.9234 -0.51291 -778.98685 0 -5.33186 3.20009 1.23216 -5.02601 -34.76972 -2.1906 -3.59005 29.89615 -23.91613 -2.97068 114.29972 17.30372 -57.57616 8.2022 18.61377 24.29805 -18.54259 97.63835 -109.73027 -71.91393 6.733 17.06458 8.69351 -8.91548 -7.20332 3.64632 -4.64733 -11.06201 -7.20171 2.28912 3.27684 -12.58633 15.41361 5.30944 2.73648
1.43337 0.92141 -0.50112 -778.55898 0 -5.25727 3.37655 1.32983 -5.21667 -35.0313 -2.42543 -4.20374 29.54892 -23.62821 -3.39944 115.48222 16.95176 -58.6262 8.29042 18.63371 24.96899 -18.6702 97.73528 -109.30729 -71.94267 6.63612 16.89628 8.48291 -11.49676 -7.42982 3.83284 -4.56812 -10.10978 -7.66354 2.37825 3.24603 -13.15689 16.00822 5.45401 2.56085
1.43855 0.92002 -0.48832 -778.22593 0 -5.32129 3.65606 1.54412 -5.44383 -35.39577 -2.61345 -4.69663 29.3228 -23.40979 -3.66329 116.5875 16.76159 -59.72424 8.37532 18.68026 25.49067 -18.70236 97.77424 -108.98073 -71.90383 6.53382 16.56869 8.46599 -13.62964 -7.60268 3.64363 -4.41325 -9.22282 -8.13506 2.6202 3.21434 -13.8073 16.42183 5.60547 2.47031
1.44359 0.92025 -0.47293 -778.17192 0 -5.7805 4.21436 2.09533 -5.76226 -36.05896 -2.69613 -4.85948 29.42141 -23.33859 -3.57812 117.58462 16.10399 -60.68672 8.62556 18.81921 25.62726 -18.48807 97.6437 -108.92136 -71.68517 6.41769 15.80084 9.00752 -14.35073 -7.42218 2.34366 -4.05942 -8.68233 -8.70199 3.27259 3.20697 -14.54586 16.36766 5.83408 2.67376
1.44853 0.92108 -0.45657 -778.22085 0 -6.37392 4.87126 2.75845 -6.11345 -36.8184 -2.73172 -4.8993 29.63915 -23.33869 -3.33215 118.51302 15.51336 -61.66008 8.89102 18.98052 25.60936 -18.17506 97.45776 -108.96034 -71.39676 6.29752 14.87501 9.74065 -14.60893 -7.16803 0.68158 -3.63237 -8.2081 -9.26962 4.07377 3.19847 -15.37446 16.1227 6.05991 2.95481
1.45346 0.92165 -0.44068 -778.23163 0 -6.89151 5.47601 3.35474 -6.44504 -37.51693 -2.78201 -4.99224 29.7997 -23.3199 -3.14504 119.46408 14.93086 -62.62431 9.1422 19.1162 25.64374 -17.89301 97.30633 -108.95712 -71.13181 6.18172 14.025 10.37256 -15.10486 -6.96734 -0.7605 -3.24123 -7.65532 -9.80364 4.79946 3.18188 -16.21532 15.93796 6.24794 3.16745
1.45863 0.92215 -0.42464 -778.20056 0 -7.47296 6.11599 4.01902 -6.79966 -38.29195 -2.85801 -5.09752 29.97577 -23.24595 -3.00876 120.43963 14.28789 -63.64383 9.4086 19.31659 25.75012 -17.66514 97.11521 -108.94368 -70.89854 6.05447 13.1559 11.06417 -15.50357 -6.70581 -2.43763 -2.83642 -7.29204 -10.48158 5.56096 3.19893 -16.83368 15.86493 6.59685 3.51881
1.46327 0.92295 -0.4087 -778.28399 0 -7.95293 6.70286 4.56861 -7.11228 -38.927 -2.87079 -5.14734 30.14626 -23.30437 -2.72941 121.35101 13.76538 -64.53815 9.64674 19.38876 25.67436 -17.30695 96.9934 -108.9739 -70.58716 5.95041 12.29097 11.67663 -15.98867 -6.54577 -3.71116 -2.44415 -6.55692 -10.85379 6.28282 3.14725 -17.94036 15.51513 6.61504 3.60006
1.46651 0.92454 -0.39311 -778.64963 0 -8.1177 7.13752 4.76647 -7.30812 -39.17671 -2.71389 -5.07752 30.27972 -23.69458 -2.12573 122.11661 13.35025 -65.05981 9.88069 19.08849 25.09325 -16.55952 97.08022 -109.11285 -70.03565 5.91139 11.46233 12.02718 -16.81057 -6.66703 -3.77696 -2.09843 -4.76454 -10.44149 6.85036 2.8991 -20.31708 14.43561 5.67868 2.921
1.46921 0.92642 -0.37767 -779.12985 0 -8.17553 7.51142 4.84582 -7.45871 -39.27768 -2.49633 -4.95523 30.4025 -24.21753 -1.37972 122.81794 13.08388 -65.45294 10.07464 18.66065 24.34041 -15.69342 97.23787 -109.29119 -69.41475 5.89607 10.64596 12.29075 -17.73245 -6.89202 -3.42499 -1.76927 -2.60228 -9.71103 7.37334 2.58362 -23.18883 13.08823 4.41829 1.96951
1.47212 0.92812 -0.36227 -779.56322 0 -8.28404 7.90067 4.98485 -7.62512 -39.42989 -2.31142 -4.85501 30.52399 -24.69062 -0.67965 123.54255 12.85822 -65.91642 10.2391 18.29973 23.69422 -14.91783 97.36112 -109.44228 -68.85381 5.86984 9.83331 12.592 -18.61948 -7.07769 -3.26679 -1.43666 -0.61804 -9.0867 7.92263 2.30352 -25.87349 11.86869 3.33272 1.13648
1.47518 0.93003 -0.34639 -779.97548 0 -8.39006 8.3455 5.10515 -7.81336 -39.65329 -2.10417 -4.75899 30.67253 -25.12444 -0.05182 124.29454 12.14562 -66.33474 10.60421 17.90221 22.92714 -13.98798 97.49282 -109.63203 -68.17393 5.84357 8.97624 12.90814 -19.45836 -7.23036 -3.10372 -1.08412 1.4144 -8.62296 8.45428 2.00225 -28.41308 10.60845 2.12719 0.31744
1.47779 0.93157 -0.33155 -780.46082 0 -8.47211 8.65843 5.23244 -7.94416 -39.69342 -1.92865 -4.64212 30.76451 -25.66768 0.75679 124.96894 12.52418 -66.81112 10.54268 17.54988 22.36649 -13.348 97.62315 -109.75463 -67.72186 5.82365 8.21623 13.16959 -20.41174 -7.47459 -2.84815 -0.77814 3.42461 -7.75138 9.00679 1.73024 -31.35666 9.38222 1.09902 -0.58231
1.47931 0.93198 -0.31947 -781.09285 0 -8.53069 8.62478 5.42794 -7.93368 -39.2495 -1.86465 -4.49159 30.66976 -26.50671 2.03996 125.50094 15.49621 -67.52226 9.30653 17.35764 22.47691 -13.57879 97.74397 -109.63388 -67.95535 5.81074 7.72626 13.30475 -21.78835 -7.96932 -2.42603 -0.59626 5.37038 -5.81339 9.65512 1.54548 -35.41413 8.22644 0.60298 -1.76038
1.48039 0.932 -0.30846 -781.79946 0 -8.56503 8.45945 5.63028 -7.86554 -38.62861 -1.83334 -4.32043 30.52468 -27.44691 3.49723 125.9484 19.6237 -68.2883 7.64433 17.21459 22.79191 -14.09938 97.85914 -109.45096 -68.4147 5.80431 7.33364 13.38623 -23.25271 -8.549 -1.92571 -0.4614 7.26343 -3.4802 10.31987 1.39406 -39.83485 7.13091 0.30403 -2.9883
1.48166 0.93223 -0.297 -782.48857 0 -8.599 8.35215 5.81584 -7.81959 -38.09747 -1.78118 -4.15208 30.42296 -28.32217 4.86745 126.39632 23.48342 -69.00053 6.18037 17.04601 22.97386 -14.45923 97.96944 -109.32992 -68.74355 5.79806 6.89368 13.48911 -24.59515 -9.07448 -1.46833 -0.30533 9.12554 -1.33869 10.95876 1.23438 -44.01487 6.06813 -0.06159 -4.11319
1.48297 0.93235 -0.28536 -783.11065 0 -8.67759 8.25058 6.055 -7.78926 -37.52123 -1.75167 -4.00955 30.23181 -29.27852 6.27686 126.99634 26.29639 -69.82912 4.69238 16.88572 23.31421 -14.93259 98.11327 -109.07561 -69.18257 5.77946 6.46624 13.6019 -26.29429 -9.66779 -0.96612 -0.14801 11.23868 0.86853 11.67495 1.04461 -48.54572 4.74526 -0.53732 -5.58511
1.4841 0.93259 -0.27437 -783.8909 0 -8.65864 8.10643 6.18574 -7.71298 -36.99957 -1.68417 -3.80905 30.21841 -30.09281 7.64331 127.26769 31.51886 -70.43134 3.1577 16.72238 23.38136 -15.24602 98.1854 -109.07449 -69.45293 5.78782 6.03681 13.68218 -27.26112 -10.14064 -0.54313 -0.00567 12.80362 3.02403 12.23323 0.9246 -52.40781 3.97786 -0.73003 -6.34475
